<?xml version="1.0" encoding="utf-8"?>
<!-- Generator: Adobe Illustrator 24.0.0, SVG Export Plug-In . SVG Version: 6.00 Build 0)  -->
<svg version="1.1" id="Layer_1" xmlns="http://www.w3.org/2000/svg" xmlns:xlink="http://www.w3.org/1999/xlink" x="0px" y="0px"
	 viewBox="0 0 128 128" style="enable-background:new 0 0 128 128;" xml:space="preserve">
<style type="text/css">
	.st0{fill:url(#SVGID_1_);}
	.st1{fill:url(#SVGID_2_);}
</style>
<g>
	<linearGradient id="SVGID_1_" gradientUnits="userSpaceOnUse" x1="43.2219" y1="27.4645" x2="43.2219" y2="97.3958">
		<stop  offset="0" style="stop-color:#2685DB"/>
		<stop  offset="1" style="stop-color:#6B439B"/>
	</linearGradient>
	<path class="st0" d="M72.37,49.93L64,41.56L51.34,28.9c-1.2-1.2-3.13-1.2-4.33,0L14.07,61.84c-1.2,1.2-1.2,3.13,0,4.33l29.88,29.88
		c1.93,1.93,5.23,0.56,5.23-2.16V71.62V56.38v-3.07c0-2.72,3.29-4.09,5.22-2.17l0.01,0.01l13.64,13.57
		c1.93,1.92,5.22,0.55,5.22-2.17V52.09C73.27,51.28,72.95,50.5,72.37,49.93z"/>
	
		<linearGradient id="SVGID_2_" gradientUnits="userSpaceOnUse" x1="84.774" y1="100.3969" x2="84.774" y2="31.5736" gradientTransform="matrix(1 1.412705e-04 -1.412705e-04 1 0.0132 -2.055254e-03)">
		<stop  offset="0" style="stop-color:#2685DB"/>
		<stop  offset="1" style="stop-color:#6B439B"/>
	</linearGradient>
	<path class="st1" d="M113.93,61.84L84.05,31.96c-1.93-1.93-5.23-0.56-5.23,2.16l0,22.26l0,15.24l0,3.05c0,2.72-3.29,4.09-5.22,2.17
		L59.95,63.25c-1.93-1.92-5.22-0.56-5.22,2.17l0,10.48c0,0.81,0.32,1.59,0.9,2.16L64,86.44L76.65,99.1c1.2,1.2,3.13,1.2,4.33,0
		l32.94-32.93C115.12,64.97,115.12,63.04,113.93,61.84z"/>
</g>
</svg>
