<?xml version="1.0" encoding="utf-8"?>
<!-- Generator: Adobe Illustrator 24.0.0, SVG Export Plug-In . SVG Version: 6.00 Build 0)  -->
<svg version="1.1" id="Layer_1" xmlns="http://www.w3.org/2000/svg" xmlns:xlink="http://www.w3.org/1999/xlink" x="0px" y="0px"
	 viewBox="0 0 32 32" style="enable-background:new 0 0 32 32;" xml:space="preserve">
<style type="text/css">
	.st0{fill:url(#SVGID_1_);}
	.st1{fill:url(#SVGID_2_);}
</style>
<g>
	<linearGradient id="SVGID_1_" gradientUnits="userSpaceOnUse" x1="10.2283" y1="5.8512" x2="10.2283" y2="25.2766">
		<stop  offset="0" style="stop-color:#2685DB"/>
		<stop  offset="1" style="stop-color:#6B439B"/>
	</linearGradient>
	<path class="st0" d="M18.33,12.09L16,9.77l-3.52-3.52c-0.33-0.33-0.87-0.33-1.2,0L2.13,15.4c-0.33,0.33-0.33,0.87,0,1.2l8.3,8.3
		c0.54,0.54,1.45,0.16,1.45-0.6v-6.18v-4.23v-0.85c0-0.76,0.91-1.14,1.45-0.6l0,0l3.79,3.77c0.54,0.53,1.45,0.15,1.45-0.6v-2.91
		C18.57,12.47,18.48,12.25,18.33,12.09z"/>
	
		<linearGradient id="SVGID_2_" gradientUnits="userSpaceOnUse" x1="21.7676" y1="26.1052" x2="21.7676" y2="6.9876" gradientTransform="matrix(1 1.412705e-04 -1.412705e-04 1 6.383777e-03 4.725730e-03)">
		<stop  offset="0" style="stop-color:#2685DB"/>
		<stop  offset="1" style="stop-color:#6B439B"/>
	</linearGradient>
	<path class="st1" d="M29.87,15.4l-8.3-8.3c-0.54-0.54-1.45-0.16-1.45,0.6l0,6.18l0,4.23l0,0.85c0,0.76-0.91,1.14-1.45,0.6
		l-3.79-3.77c-0.54-0.53-1.45-0.15-1.45,0.6l0,2.91c0,0.23,0.09,0.44,0.25,0.6L16,22.23l3.52,3.52c0.33,0.33,0.87,0.33,1.2,0
		l9.15-9.15C30.2,16.27,30.2,15.73,29.87,15.4z"/>
</g>
</svg>
