<?xml version="1.0" encoding="utf-8"?>
<!-- Generator: Adobe Illustrator 24.0.0, SVG Export Plug-In . SVG Version: 6.00 Build 0)  -->
<svg version="1.1" id="Layer_1" xmlns="http://www.w3.org/2000/svg" xmlns:xlink="http://www.w3.org/1999/xlink" x="0px" y="0px"
	 viewBox="0 0 64 64" style="enable-background:new 0 0 64 64;" xml:space="preserve">
<style type="text/css">
	.st0{fill:url(#SVGID_1_);}
	.st1{fill:url(#SVGID_2_);}
</style>
<g>
	<linearGradient id="SVGID_1_" gradientUnits="userSpaceOnUse" x1="19.8794" y1="10.6876" x2="19.8794" y2="51.4809">
		<stop  offset="0" style="stop-color:#2685DB"/>
		<stop  offset="1" style="stop-color:#6B439B"/>
	</linearGradient>
	<path class="st0" d="M36.88,23.79L32,18.91l-7.38-7.38c-0.7-0.7-1.83-0.7-2.53,0L2.88,30.74c-0.7,0.7-0.7,1.83,0,2.53L20.3,50.69
		c1.13,1.13,3.05,0.33,3.05-1.26V36.45v-8.89v-1.79c0-1.59,1.92-2.39,3.04-1.27l0.01,0.01l7.96,7.92c1.13,1.12,3.05,0.32,3.05-1.27
		v-6.1C37.41,24.58,37.22,24.13,36.88,23.79z"/>
	
		<linearGradient id="SVGID_2_" gradientUnits="userSpaceOnUse" x1="44.1164" y1="53.2286" x2="44.1164" y2="13.0817" gradientTransform="matrix(1 1.412705e-04 -1.412705e-04 1 8.644105e-03 2.465402e-03)">
		<stop  offset="0" style="stop-color:#2685DB"/>
		<stop  offset="1" style="stop-color:#6B439B"/>
	</linearGradient>
	<path class="st1" d="M61.12,30.74L43.7,13.31c-1.12-1.13-3.05-0.33-3.05,1.26l0,12.98l0,8.89l0,1.78c0,1.59-1.92,2.39-3.05,1.26
		l-7.96-7.93c-1.13-1.12-3.05-0.32-3.05,1.27l0,6.11c0,0.47,0.19,0.93,0.52,1.26L32,45.09l7.38,7.39c0.7,0.7,1.83,0.7,2.53,0
		l19.22-19.21C61.82,32.57,61.82,31.44,61.12,30.74z"/>
</g>
</svg>
