<?xml version="1.0" encoding="utf-8"?>
<!-- Generator: Adobe Illustrator 24.0.0, SVG Export Plug-In . SVG Version: 6.00 Build 0)  -->
<svg version="1.1" id="Layer_1" xmlns="http://www.w3.org/2000/svg" xmlns:xlink="http://www.w3.org/1999/xlink" x="0px" y="0px"
	 viewBox="0 0 16 16" style="enable-background:new 0 0 16 16;" xml:space="preserve">
<style type="text/css">
	.st0{fill:url(#SVGID_1_);}
	.st1{fill:url(#SVGID_2_);}
</style>
<g>
	<linearGradient id="SVGID_1_" gradientUnits="userSpaceOnUse" x1="5.1142" y1="2.9256" x2="5.1142" y2="12.6383">
		<stop  offset="0" style="stop-color:#2685DB"/>
		<stop  offset="1" style="stop-color:#6B439B"/>
	</linearGradient>
	<path class="st0" d="M9.16,6.05L8,4.88L6.24,3.12c-0.17-0.17-0.44-0.17-0.6,0L1.07,7.7c-0.17,0.17-0.17,0.44,0,0.6l4.15,4.15
		c0.27,0.27,0.73,0.08,0.73-0.3V9.06V6.94V6.52c0-0.38,0.46-0.57,0.72-0.3l0,0L8.56,8.1c0.27,0.27,0.73,0.08,0.73-0.3V6.35
		C9.29,6.23,9.24,6.13,9.16,6.05z"/>
	
		<linearGradient id="SVGID_2_" gradientUnits="userSpaceOnUse" x1="10.8817" y1="13.0491" x2="10.8817" y2="3.4903" gradientTransform="matrix(1 1.412705e-04 -1.412705e-04 1 5.253613e-03 5.855893e-03)">
		<stop  offset="0" style="stop-color:#2685DB"/>
		<stop  offset="1" style="stop-color:#6B439B"/>
	</linearGradient>
	<path class="st1" d="M14.93,7.7l-4.15-4.15c-0.27-0.27-0.73-0.08-0.73,0.3l0,3.09l0,2.12l0,0.42c0,0.38-0.46,0.57-0.73,0.3
		L7.44,7.9C7.17,7.63,6.71,7.82,6.71,8.2l0,1.46c0,0.11,0.04,0.22,0.12,0.3L8,11.12l1.76,1.76c0.17,0.17,0.44,0.17,0.6,0l4.58-4.57
		C15.1,8.14,15.1,7.87,14.93,7.7z"/>
</g>
</svg>
